<?xml version="1.0" encoding="utf-8"?>
<!-- Generator: Adobe Illustrator 27.0.1, SVG Export Plug-In . SVG Version: 6.00 Build 0)  -->
<svg version="1.1" id="Layer_1" xmlns="http://www.w3.org/2000/svg" xmlns:xlink="http://www.w3.org/1999/xlink" x="0px" y="0px"
	 viewBox="0 0 32 32" style="enable-background:new 0 0 32 32;" xml:space="preserve">
<style type="text/css">
	.st0{fill:none;}
	.st1{fill-rule:evenodd;clip-rule:evenodd;}
</style>
<path class="st0" d="M3,3h26v26H3V3z"/>
<path class="st1" d="M16.8,8.7v0.8c0,0.7-1.2,1.1-1.5,0.3c0-0.1-0.1-0.2-0.1-0.3V8.7h-2.4c-0.6,0-1-0.8-0.6-1.3
	c0.1-0.2,0.3-0.3,0.6-0.3c0.8,0,1.6,0,2.4,0V6.3c0-0.1,0-0.2,0-0.3c0.1-0.3,0.4-0.6,0.8-0.6c0.4,0,0.8,0.3,0.8,0.8V7
	c1.6,0,3.2,0,4.9,0V6.3c0-0.4,0.3-0.8,0.8-0.8h0c0.4,0,0.8,0.3,0.8,0.8v0.8l0.9,0c1.2,0,2.4,1.1,2.4,2.4c0,4.9,0,9.8,0,14.7
	c0,1.3-1.1,2.4-2.4,2.4c-5.4,0-10.9,0-16.3,0c-1.3,0-2.4-1.1-2.4-2.4c0-4.9,0-9.8,0-14.7c0-1.3,1.1-2.4,2.4-2.4h0.8V6.3
	c0-0.1,0-0.2,0-0.3c0.1-0.3,0.4-0.6,0.8-0.6c0.4,0,0.8,0.3,0.8,0.8v3.2c0,0.7-1.1,1.1-1.5,0.4C8.7,9.8,8.7,9.6,8.7,9.5V8.7
	c-0.3,0-0.6,0-0.8,0c-0.4,0-0.8,0.4-0.8,0.8C7,14.4,7,19.3,7.1,24.1c0,0.4,0.4,0.8,0.8,0.8c5.4,0.1,10.9,0.1,16.3,0
	c0.4,0,0.8-0.4,0.8-0.8c0.1-4.9,0.1-9.8,0-14.7c0-0.4-0.4-0.8-0.8-0.8h-0.8v0.8c0,0.7-1.1,1.1-1.5,0.4c-0.1-0.1-0.1-0.2-0.1-0.4V8.7
	C21.7,8.7,16.8,8.7,16.8,8.7z M9.5,21.7c0.4,0,0.8,0.3,0.8,0.8c0,0.4-0.3,0.8-0.8,0.8c0,0,0,0-0.1,0c-0.4,0-0.8-0.4-0.8-0.8
	C8.7,22,9.1,21.7,9.5,21.7z M12.8,21.7c0.4,0,0.8,0.3,0.8,0.8c0,0.4-0.3,0.8-0.8,0.8c0,0,0,0-0.1,0c-0.4,0-0.8-0.4-0.8-0.8
	C12,22,12.3,21.7,12.8,21.7z M16,21.7c0.4,0,0.8,0.4,0.8,0.8c0,0.4-0.4,0.8-0.8,0.8c-0.4,0-0.8-0.4-0.8-0.8
	C15.3,22,15.6,21.7,16,21.7z M9.5,18.4c0.4,0,0.8,0.3,0.8,0.8c0,0.4-0.3,0.8-0.8,0.8c0,0,0,0-0.1,0c-0.4,0-0.8-0.4-0.8-0.8
	C8.7,18.8,9.1,18.5,9.5,18.4z M12.8,18.4c0.4,0,0.8,0.4,0.8,0.8s-0.4,0.8-0.8,0.8S12,19.7,12,19.2S12.3,18.4,12.8,18.4z M16,18.4
	c0.4,0,0.8,0.3,0.8,0.8s-0.3,0.8-0.8,0.8c0,0,0,0-0.1,0c-0.4,0-0.8-0.4-0.8-0.8C15.2,18.8,15.6,18.5,16,18.4z M19.3,18.4
	c0.4,0,0.8,0.3,0.8,0.8s-0.3,0.8-0.8,0.8c0,0,0,0-0.1,0c-0.4,0-0.8-0.4-0.8-0.8C18.5,18.8,18.8,18.5,19.3,18.4z M22.5,18.4
	c0.4,0,0.8,0.3,0.8,0.8c0,0.4-0.3,0.8-0.8,0.8c0,0,0,0-0.1,0c-0.4,0-0.8-0.4-0.8-0.8C21.7,18.8,22.1,18.5,22.5,18.4z M12.8,15.2
	c0.4,0,0.8,0.4,0.8,0.8c0,0.4-0.4,0.8-0.8,0.8c0,0,0,0,0,0c-0.4,0-0.8-0.4-0.8-0.8C12,15.6,12.3,15.2,12.8,15.2z M16,15.2
	c0.4,0,0.8,0.3,0.8,0.8c0,0.4-0.3,0.8-0.8,0.8c0,0,0,0-0.1,0c-0.4,0-0.8-0.4-0.8-0.8C15.3,15.5,15.6,15.2,16,15.2z M19.3,15.2
	c0.4,0,0.8,0.3,0.8,0.8c0,0.4-0.3,0.8-0.8,0.8c0,0,0,0-0.1,0c-0.4,0-0.8-0.4-0.8-0.8C18.5,15.5,18.8,15.2,19.3,15.2z M22.5,15.2
	c0.4,0,0.8,0.4,0.8,0.8s-0.4,0.8-0.8,0.8l0,0c-0.4,0-0.8-0.4-0.8-0.8C21.7,15.6,22.1,15.2,22.5,15.2z"/>
</svg>
