<?xml version="1.0" encoding="utf-8"?>
<!-- Generator: Adobe Illustrator 27.0.1, SVG Export Plug-In . SVG Version: 6.00 Build 0)  -->
<svg version="1.1" id="Layer_1" xmlns="http://www.w3.org/2000/svg" xmlns:xlink="http://www.w3.org/1999/xlink" x="0px" y="0px"
	 viewBox="0 0 48 48" style="enable-background:new 0 0 48 48;" xml:space="preserve">
<style type="text/css">
	.st0{fill:#F8B84E;}
</style>
<path d="M39,40h-3V11c0-0.6-0.4-1-1-1H13c-0.6,0-1,0.4-1,1v29H9c-0.6,0-1,0.4-1,1s0.4,1,1,1h30c0.6,0,1-0.4,1-1S39.6,40,39,40z
	 M21,40v-6h6v6H21z M29,40v-6h1c0.6,0,1-0.4,1-1s-0.4-1-1-1H18c-0.6,0-1,0.4-1,1s0.4,1,1,1h1v6h-5V12h20v28H29z"/>
<path d="M19,16h-2c-0.6,0-1,0.4-1,1s0.4,1,1,1h2c0.6,0,1-0.4,1-1S19.6,16,19,16z M25,16h-2c-0.6,0-1,0.4-1,1s0.4,1,1,1h2
	c0.6,0,1-0.4,1-1S25.6,16,25,16z M31,16h-2c-0.6,0-1,0.4-1,1s0.4,1,1,1h2c0.6,0,1-0.4,1-1S31.6,16,31,16z M19,21h-2
	c-0.6,0-1,0.4-1,1s0.4,1,1,1h2c0.6,0,1-0.4,1-1S19.6,21,19,21z M25,21h-2c-0.6,0-1,0.4-1,1s0.4,1,1,1h2c0.6,0,1-0.4,1-1
	S25.6,21,25,21z M31,21h-2c-0.6,0-1,0.4-1,1s0.4,1,1,1h2c0.6,0,1-0.4,1-1S31.6,21,31,21z M19,26h-2c-0.6,0-1,0.4-1,1s0.4,1,1,1h2
	c0.6,0,1-0.4,1-1S19.6,26,19,26z M25,26h-2c-0.6,0-1,0.4-1,1s0.4,1,1,1h2c0.6,0,1-0.4,1-1S25.6,26,25,26z M31,26h-2
	c-0.6,0-1,0.4-1,1s0.4,1,1,1h2c0.6,0,1-0.4,1-1S31.6,26,31,26z"/>
<path class="st0" d="M39.8,21.7c-0.8,0.5-5.6-2.9-6.5-2.9c-0.9,0-5.8,3.3-6.6,2.8c-0.7-0.5,1-6.2,0.7-7.1c-0.3-0.9-5-4.5-4.7-5.4
	c0.3-0.9,6.2-1,7-1.5c0.8-0.5,2.7-6.1,3.7-6.1c0.9,0,2.8,5.6,3.6,6.1c0.7,0.5,6.7,0.7,6.9,1.6c0.3,0.9-4.5,4.4-4.7,5.3
	C38.9,15.5,40.6,21.1,39.8,21.7z"/>
</svg>
