<svg xmlns="http://www.w3.org/2000/svg" viewBox="0 0 64 64"><path fill="#222" d="M42.728 37.022c-6.18 0-8.928-5.83-9.268-9.748-.19-2.173-.633-7.266 2.34-10.509a8.966 8.966 0 0 1 6.929-2.657 1.5 1.5 0 0 1 0 3 6.044 6.044 0 0 0-4.718 1.684c-2.081 2.27-1.718 6.441-1.563 8.222.17 1.95 1.628 7.008 6.28 7.008a1.5 1.5 0 0 1 0 3Z"/><path fill="#222" d="M42.728 37.022a1.5 1.5 0 0 1 0-3c4.652 0 6.11-5.059 6.28-7.008.155-1.78.517-5.953-1.564-8.222a6.04 6.04 0 0 0-4.716-1.684 1.5 1.5 0 0 1 0-3 8.966 8.966 0 0 1 6.928 2.656c2.972 3.242 2.53 8.335 2.34 10.51-.34 3.919-3.09 9.748-9.268 9.748zM25.038 54.65a1.5 1.5 0 0 1-1.488-1.32c-.54-4.482.026-7.688 1.728-9.797 1.37-1.701 3.417-2.658 6.255-2.925 5.038-.476 6.487-1.855 6.2-5.901a1.5 1.5 0 1 1 2.993-.212c.511 7.229-4.217 8.656-8.911 9.1-2.018.19-3.354.77-4.202 1.82-1.151 1.428-1.515 3.97-1.085 7.557a1.5 1.5 0 0 1-1.49 1.678z"/><path fill="#222" d="M60.305 54.143c-.046 0-.092-.002-.138-.007a1.5 1.5 0 0 1-1.358-1.63c.632-6.955-1.508-8.567-5.166-8.912-4.694-.443-9.423-1.87-8.913-9.1a1.5 1.5 0 0 1 2.993.212c-.287 4.047 1.163 5.426 6.2 5.901 7.98.753 8.316 7.307 7.874 12.171a1.501 1.501 0 0 1-1.492 1.365zM18.67 28.669c-5.35 0-7.73-5.026-8.023-8.405-.163-1.858-.54-6.209 2.028-9.01a7.758 7.758 0 0 1 5.995-2.308 1.5 1.5 0 0 1 0 3 4.853 4.853 0 0 0-3.784 1.336c-1.676 1.828-1.378 5.258-1.251 6.722.137 1.576 1.308 5.665 5.035 5.665a1.5 1.5 0 0 1 0 3z"/><path fill="#222" d="M18.67 28.67a1.5 1.5 0 0 1 0-3c3.726 0 4.898-4.09 5.035-5.666.116-1.338.427-4.892-1.25-6.722a4.85 4.85 0 0 0-3.784-1.336 1.5 1.5 0 0 1 0-3 7.756 7.756 0 0 1 5.996 2.31c2.568 2.802 2.188 7.151 2.026 9.009-.293 3.378-2.672 8.404-8.022 8.404Z"/><path fill="#222" d="M3.813 43.474a1.5 1.5 0 0 1-1.488-1.321c-.46-3.833.032-6.583 1.504-8.408A7.443 7.443 0 0 1 9.246 31.2c4.151-.391 5.224-1.402 4.99-4.7a1.5 1.5 0 1 1 2.992-.212c.446 6.278-3.643 7.516-7.7 7.898a4.593 4.593 0 0 0-3.364 1.44c-.924 1.147-1.214 3.221-.86 6.168a1.5 1.5 0 0 1-1.491 1.678zm29.619-.426c-.046 0-.092-.002-.138-.007a1.5 1.5 0 0 1-1.358-1.629c.57-6.26-1.625-6.989-4.122-7.224-4.058-.383-8.145-1.62-7.702-7.898a1.5 1.5 0 0 1 2.993.211c-.233 3.298.84 4.309 4.99 4.7 6.917.652 7.21 6.295 6.829 10.482a1.501 1.501 0 0 1-1.492 1.365z"/></svg>